<svg viewBox="0 0 128 128" xmlns="http://www.w3.org/2000/svg"><linearGradient id="a" gradientUnits="userSpaceOnUse" x1="8" x2="120" y1="238" y2="238"><stop offset="0" stop-color="#c0bfbc"/><stop offset=".143" stop-color="#c0bfbc"/><stop offset=".25" stop-color="#deddda"/><stop offset=".5" stop-color="#c0bfbc" stop-opacity=".939"/><stop offset="1" stop-color="#c0bfbc" stop-opacity=".984"/></linearGradient><g stroke-width="4"><path d="M64 182c-30.928 0-56 25.072-56 56s25.072 56 56 56 56-25.072 56-56-25.072-56-56-56zm0 36a20 20 0 0 1 20 20 20 20 0 0 1-20 20 20 20 0 0 1-20-20 20 20 0 0 1 20-20z" fill="url(#a)" transform="translate(0 -172)"/><path d="M64 8C33.072 8 8 33.072 8 64s25.072 56 56 56 56-25.072 56-56S94.928 8 64 8zm0 36a20 20 0 0 1 20 20 20 20 0 0 1-20 20 20 20 0 0 1-20-20 20 20 0 0 1 20-20z" fill="#deddda"/><path d="M64 44a20 20 0 0 0-20 20 20 20 0 0 0 20 20 20 20 0 0 0 20-20 20 20 0 0 0-20-20zm0 12a8 8 0 0 1 8 8 8 8 0 0 1-8 8 8 8 0 0 1-8-8 8 8 0 0 1 8-8z" fill="#c0bfbc" fill-opacity=".947"/><path d="M64 8v36a20 20 0 0 1 14.133 5.867l25.469-25.469C93.468 14.264 79.464 8 64 8zM49.867 78.132l-25.469 25.469C34.532 113.735 48.536 119.999 64 119.999v-36a20 20 0 0 1-14.133-5.867z" fill="#f6f5f4" opacity=".5"/><path d="M64 40a24 24 0 0 0-24 24 24 24 0 0 0 24 24 24 24 0 0 0 24-24 24 24 0 0 0-24-24zm0 4a20 20 0 0 1 20 20 20 20 0 0 1-20 20 20 20 0 0 1-20-20 20 20 0 0 1 20-20z" fill="#9a9996" fill-opacity=".947"/></g><path d="M117.05 78h-14c-3-1-2.96-1.368-3-3-.052-2.091 3-4 3-7 0-2.216-1.784-4-4-4h-4c-2.216 0-4 1.784-4 4 0 3 2.914 4.751 3 7 .062 1.615 0 2-2.898 3H75.05v16c-1 3-1.368 2.96-3 3-2.092.052-4-3-7-3-2.216 0-4 1.784-4 4v4c0 2.216 1.784 4 4 4 3 0 4.751-2.914 7-3 1.614-.062 2 0 3 2.898V120h42v-14.246c-.96-2.74-1.363-2.814-2.948-2.754-2.248.087-4 3-7 3a3.99 3.99 0 0 1-4-4v-4c0-2.215 1.784-4 4-4 3 0 4.909 3.052 7 3 1.601-.04 1.989-.018 2.948-2.851z" fill="#1a5fb4"/><path d="M117 76h-14c-3-1-2.96-1.368-3-3-.052-2.091 3-4 3-7 0-2.216-1.784-4-4-4h-4c-2.216 0-4 1.784-4 4 0 3 2.914 4.751 3 7 .062 1.615 0 2-2.898 3H75v16c-1 3-1.368 2.96-3 3-2.092.052-4-3-7-3-2.216 0-4 1.784-4 4v4c0 2.216 1.784 4 4 4 3 0 4.751-2.914 7-3 1.614-.062 2 0 3 2.898V118h42v-14.246c-.96-2.74-1.363-2.814-2.948-2.754-2.248.087-4 3-7 3a3.99 3.99 0 0 1-4-4v-4c0-2.215 1.784-4 4-4 3 0 4.909 3.052 7 3 1.601-.04 1.989-.018 2.948-2.851z" fill="#3584e4"/></svg>